<svg xmlns="http://www.w3.org/2000/svg" style="display:none">
<defs>

<!-- Press horizontal (press de banca y similares) -->
<symbol id="pose-press-horizontal" viewBox="0 0 100 100" fill="none" stroke="currentColor" stroke-width="4.2" stroke-linecap="round" stroke-linejoin="round">
  <rect x="14" y="58" width="62" height="7" rx="2"/>
  <circle cx="24" cy="49" r="7" fill="currentColor" stroke="none"/>
  <line x1="31" y1="50" x2="66" y2="50"/>
  <line x1="66" y1="50" x2="78" y2="62"/>
  <line x1="78" y1="62" x2="72" y2="80"/>
  <line x1="38" y1="49" x2="38" y2="24"/>
  <line x1="55" y1="49" x2="55" y2="24"/>
  <line x1="18" y1="24" x2="76" y2="24"/>
</symbol>

<!-- Press vertical (press militar, press de hombro) -->
<symbol id="pose-press-vertical" viewBox="0 0 100 100" fill="none" stroke="currentColor" stroke-width="4.2" stroke-linecap="round" stroke-linejoin="round">
  <circle cx="50" cy="17" r="7.5" fill="currentColor" stroke="none"/>
  <line x1="50" y1="24" x2="50" y2="58"/>
  <line x1="50" y1="58" x2="39" y2="92"/>
  <line x1="50" y1="58" x2="61" y2="92"/>
  <line x1="50" y1="30" x2="34" y2="12"/>
  <line x1="50" y1="30" x2="66" y2="12"/>
  <line x1="26" y1="10" x2="74" y2="10"/>
</symbol>

<!-- Sentadilla -->
<symbol id="pose-sentadilla" viewBox="0 0 100 100" fill="none" stroke="currentColor" stroke-width="4.2" stroke-linecap="round" stroke-linejoin="round">
  <circle cx="50" cy="15" r="7.5" fill="currentColor" stroke="none"/>
  <line x1="50" y1="22" x2="50" y2="52"/>
  <line x1="50" y1="52" x2="30" y2="64"/>
  <line x1="30" y1="64" x2="36" y2="93"/>
  <line x1="50" y1="52" x2="70" y2="64"/>
  <line x1="70" y1="64" x2="64" y2="93"/>
  <line x1="32" y1="24" x2="68" y2="24"/>
  <line x1="50" y1="24" x2="38" y2="24"/>
  <line x1="50" y1="24" x2="62" y2="24"/>
</symbol>

<!-- Bisagra de cadera (peso muerto, hip thrust, buenos días) -->
<symbol id="pose-bisagra-cadera" viewBox="0 0 100 100" fill="none" stroke="currentColor" stroke-width="4.2" stroke-linecap="round" stroke-linejoin="round">
  <circle cx="30" cy="27" r="7.5" fill="currentColor" stroke="none"/>
  <line x1="34" y1="32" x2="58" y2="55"/>
  <line x1="58" y1="55" x2="55" y2="93"/>
  <line x1="58" y1="55" x2="66" y2="93"/>
  <line x1="38" y1="35" x2="38" y2="75"/>
  <rect x="17" y="72" width="42" height="7" rx="2"/>
</symbol>

<!-- Remo (tracción horizontal) -->
<symbol id="pose-remo" viewBox="0 0 100 100" fill="none" stroke="currentColor" stroke-width="4.2" stroke-linecap="round" stroke-linejoin="round">
  <circle cx="30" cy="27" r="7.5" fill="currentColor" stroke="none"/>
  <line x1="34" y1="32" x2="58" y2="55"/>
  <line x1="58" y1="55" x2="53" y2="93"/>
  <line x1="58" y1="55" x2="67" y2="90"/>
  <line x1="37" y1="35" x2="22" y2="48"/>
  <line x1="22" y1="48" x2="12" y2="42"/>
  <circle cx="9" cy="41" r="4.5" fill="currentColor" stroke="none"/>
</symbol>

<!-- Dominada / jalón (tracción vertical) -->
<symbol id="pose-dominada" viewBox="0 0 100 100" fill="none" stroke="currentColor" stroke-width="4.2" stroke-linecap="round" stroke-linejoin="round">
  <line x1="16" y1="10" x2="84" y2="10"/>
  <line x1="27" y1="12" x2="40" y2="26"/>
  <line x1="73" y1="12" x2="60" y2="26"/>
  <circle cx="50" cy="24" r="7.5" fill="currentColor" stroke="none"/>
  <line x1="50" y1="31" x2="50" y2="58"/>
  <line x1="50" y1="58" x2="45" y2="92"/>
  <line x1="50" y1="58" x2="55" y2="92"/>
</symbol>

<!-- Curl de brazo -->
<symbol id="pose-curl-brazo" viewBox="0 0 100 100" fill="none" stroke="currentColor" stroke-width="4.2" stroke-linecap="round" stroke-linejoin="round">
  <circle cx="50" cy="16" r="7.5" fill="currentColor" stroke="none"/>
  <line x1="50" y1="23" x2="50" y2="58"/>
  <line x1="50" y1="58" x2="42" y2="92"/>
  <line x1="50" y1="58" x2="58" y2="92"/>
  <line x1="40" y1="28" x2="40" y2="52"/>
  <line x1="62" y1="28" x2="66" y2="48"/>
  <line x1="66" y1="48" x2="55" y2="34"/>
  <circle cx="53" cy="31" r="4.5" fill="currentColor" stroke="none"/>
</symbol>

<!-- Extensión de brazo (tríceps) -->
<symbol id="pose-extension-brazo" viewBox="0 0 100 100" fill="none" stroke="currentColor" stroke-width="4.2" stroke-linecap="round" stroke-linejoin="round">
  <circle cx="46" cy="16" r="7.5" fill="currentColor" stroke="none"/>
  <line x1="47" y1="23" x2="50" y2="58"/>
  <line x1="50" y1="58" x2="42" y2="92"/>
  <line x1="50" y1="58" x2="58" y2="92"/>
  <line x1="58" y1="22" x2="66" y2="14"/>
  <line x1="66" y1="14" x2="66" y2="38"/>
  <circle cx="66" cy="41" r="4.5" fill="currentColor" stroke="none"/>
</symbol>

<!-- Elevación de brazo (laterales, frontales, manguito, encogimientos) -->
<symbol id="pose-elevacion-brazo" viewBox="0 0 100 100" fill="none" stroke="currentColor" stroke-width="4.2" stroke-linecap="round" stroke-linejoin="round">
  <circle cx="50" cy="16" r="7.5" fill="currentColor" stroke="none"/>
  <line x1="50" y1="23" x2="50" y2="58"/>
  <line x1="50" y1="58" x2="43" y2="92"/>
  <line x1="50" y1="58" x2="57" y2="92"/>
  <line x1="50" y1="28" x2="20" y2="32"/>
  <circle cx="16" cy="33" r="4.5" fill="currentColor" stroke="none"/>
  <line x1="50" y1="28" x2="80" y2="32"/>
  <circle cx="84" cy="33" r="4.5" fill="currentColor" stroke="none"/>
</symbol>

<!-- Plancha / core estático -->
<symbol id="pose-core-plancha" viewBox="0 0 100 100" fill="none" stroke="currentColor" stroke-width="4.2" stroke-linecap="round" stroke-linejoin="round">
  <circle cx="18" cy="52" r="7" fill="currentColor" stroke="none"/>
  <line x1="25" y1="53" x2="82" y2="46"/>
  <line x1="22" y1="58" x2="22" y2="74"/>
  <line x1="82" y1="46" x2="88" y2="66"/>
</symbol>

<!-- Abdominal dinámico (crunch, elevación de piernas) -->
<symbol id="pose-core-crunch" viewBox="0 0 100 100" fill="none" stroke="currentColor" stroke-width="4.2" stroke-linecap="round" stroke-linejoin="round">
  <line x1="20" y1="80" x2="58" y2="80"/>
  <line x1="58" y1="80" x2="34" y2="62"/>
  <line x1="34" y1="62" x2="30" y2="80"/>
  <path d="M58 80 C50 68 52 52 66 46"/>
  <circle cx="70" cy="42" r="7" fill="currentColor" stroke="none"/>
</symbol>

<!-- Zancada / accesorios de pierna (gemelos, aductores, abductores) -->
<symbol id="pose-zancada-gemelo" viewBox="0 0 100 100" fill="none" stroke="currentColor" stroke-width="4.2" stroke-linecap="round" stroke-linejoin="round">
  <circle cx="50" cy="14" r="7.5" fill="currentColor" stroke="none"/>
  <line x1="50" y1="21" x2="50" y2="52"/>
  <line x1="50" y1="52" x2="35" y2="70"/>
  <line x1="35" y1="70" x2="35" y2="93"/>
  <line x1="50" y1="52" x2="66" y2="72"/>
  <line x1="66" y1="72" x2="78" y2="93"/>
  <line x1="66" y1="72" x2="60" y2="88"/>
</symbol>

<!-- Cardio / funcional dinámico -->
<symbol id="pose-cardio-funcional" viewBox="0 0 100 100" fill="none" stroke="currentColor" stroke-width="4.2" stroke-linecap="round" stroke-linejoin="round">
  <circle cx="50" cy="20" r="7.5" fill="currentColor" stroke="none"/>
  <line x1="50" y1="27" x2="50" y2="52"/>
  <line x1="50" y1="30" x2="30" y2="10"/>
  <line x1="50" y1="30" x2="70" y2="10"/>
  <line x1="50" y1="52" x2="28" y2="88"/>
  <line x1="50" y1="52" x2="72" y2="88"/>
  <line x1="16" y1="93" x2="26" y2="93"/>
  <line x1="74" y1="93" x2="84" y2="93"/>
</symbol>

<!-- Carga / transporte / genérico (farmer walk, antebrazos, misceláneos) -->
<symbol id="pose-carga-general" viewBox="0 0 100 100" fill="none" stroke="currentColor" stroke-width="4.2" stroke-linecap="round" stroke-linejoin="round">
  <circle cx="50" cy="15" r="7.5" fill="currentColor" stroke="none"/>
  <line x1="50" y1="22" x2="50" y2="58"/>
  <line x1="50" y1="58" x2="40" y2="92"/>
  <line x1="50" y1="58" x2="62" y2="80"/>
  <line x1="38" y1="28" x2="30" y2="60"/>
  <circle cx="28" cy="64" r="4.5" fill="currentColor" stroke="none"/>
  <line x1="62" y1="28" x2="70" y2="60"/>
  <circle cx="72" cy="64" r="4.5" fill="currentColor" stroke="none"/>
</symbol>

<!-- Estiramiento genérico (cuello, columna, cadera, tobillos) -->
<symbol id="pose-estiramiento" viewBox="0 0 100 100" fill="none" stroke="currentColor" stroke-width="4.2" stroke-linecap="round" stroke-linejoin="round">
  <circle cx="42" cy="16" r="7.5" fill="currentColor" stroke="none"/>
  <path d="M42 23 C50 35 56 45 50 60"/>
  <line x1="50" y1="60" x2="40" y2="92"/>
  <line x1="50" y1="60" x2="62" y2="88"/>
  <path d="M46 30 C60 26 68 34 66 46"/>
</symbol>

</defs>
</svg>
