<svg xmlns="http://www.w3.org/2000/svg" style="display:none">
<defs>

<symbol id="icon-home" viewBox="0 0 24 24" fill="none" stroke="currentColor" stroke-width="1.8" stroke-linecap="round" stroke-linejoin="round">
  <path d="M3 11.5L12 4l9 7.5"/><path d="M5.5 10v9.5h13V10"/><path d="M10 19.5v-6h4v6"/>
</symbol>

<symbol id="icon-routine" viewBox="0 0 24 24" fill="none" stroke="currentColor" stroke-width="1.8" stroke-linecap="round" stroke-linejoin="round">
  <circle cx="5.5" cy="12" r="2.5"/><circle cx="18.5" cy="12" r="2.5"/><line x1="8" y1="12" x2="16" y2="12"/><line x1="5.5" y1="9" x2="5.5" y2="15"/><line x1="18.5" y1="9" x2="18.5" y2="15"/>
</symbol>

<symbol id="icon-history" viewBox="0 0 24 24" fill="none" stroke="currentColor" stroke-width="1.8" stroke-linecap="round" stroke-linejoin="round">
  <path d="M3.5 9.5A8.5 8.5 0 1 1 4 15"/><polyline points="3 5.5 3.5 9.5 7.5 8.8"/><polyline points="12 8 12 12.5 15 14.5"/>
</symbol>

<symbol id="icon-exercises" viewBox="0 0 24 24" fill="none" stroke="currentColor" stroke-width="1.8" stroke-linecap="round" stroke-linejoin="round">
  <circle cx="4.5" cy="6" r="1"/><circle cx="4.5" cy="12" r="1"/><circle cx="4.5" cy="18" r="1"/>
  <line x1="8.5" y1="6" x2="20" y2="6"/><line x1="8.5" y1="12" x2="20" y2="12"/><line x1="8.5" y1="18" x2="20" y2="18"/>
</symbol>

<symbol id="icon-stats" viewBox="0 0 24 24" fill="none" stroke="currentColor" stroke-width="1.8" stroke-linecap="round" stroke-linejoin="round">
  <line x1="4" y1="20" x2="20" y2="20"/><rect x="5.5" y="13" width="3.4" height="7"/><rect x="10.3" y="8" width="3.4" height="12"/><rect x="15.1" y="4" width="3.4" height="16"/>
</symbol>

<symbol id="icon-calendar" viewBox="0 0 24 24" fill="none" stroke="currentColor" stroke-width="1.8" stroke-linecap="round" stroke-linejoin="round">
  <rect x="3.5" y="5" width="17" height="15.5" rx="2"/><line x1="3.5" y1="9.8" x2="20.5" y2="9.8"/><line x1="8" y1="3" x2="8" y2="7"/><line x1="16" y1="3" x2="16" y2="7"/>
</symbol>

<symbol id="icon-calculator" viewBox="0 0 24 24" fill="none" stroke="currentColor" stroke-width="1.8" stroke-linecap="round" stroke-linejoin="round">
  <rect x="5.5" y="3" width="13" height="18" rx="2"/><rect x="7.5" y="5.5" width="9" height="4" rx="0.5"/>
  <circle cx="8.3" cy="13.2" r="0.6" fill="currentColor" stroke="none"/><circle cx="12" cy="13.2" r="0.6" fill="currentColor" stroke="none"/><circle cx="15.7" cy="13.2" r="0.6" fill="currentColor" stroke="none"/>
  <circle cx="8.3" cy="16.5" r="0.6" fill="currentColor" stroke="none"/><circle cx="12" cy="16.5" r="0.6" fill="currentColor" stroke="none"/><circle cx="15.7" cy="16.5" r="0.6" fill="currentColor" stroke="none"/>
</symbol>

<symbol id="icon-settings" viewBox="0 0 24 24" fill="none" stroke="currentColor" stroke-width="1.8" stroke-linecap="round" stroke-linejoin="round">
  <circle cx="12" cy="12" r="3"/>
  <path d="M12 3v2.4M12 18.6V21M21 12h-2.4M5.4 12H3M18.1 5.9l-1.7 1.7M7.6 16.5l-1.7 1.7M18.1 18.1l-1.7-1.7M7.6 7.6L5.9 5.9"/>
</symbol>

<symbol id="icon-download" viewBox="0 0 24 24" fill="none" stroke="currentColor" stroke-width="1.8" stroke-linecap="round" stroke-linejoin="round">
  <line x1="12" y1="3" x2="12" y2="15"/><polyline points="7 11 12 16 17 11"/><line x1="5" y1="20.5" x2="19" y2="20.5"/>
</symbol>

<symbol id="icon-upload" viewBox="0 0 24 24" fill="none" stroke="currentColor" stroke-width="1.8" stroke-linecap="round" stroke-linejoin="round">
  <line x1="12" y1="21" x2="12" y2="9"/><polyline points="7 13 12 8 17 13"/><line x1="5" y1="3.5" x2="19" y2="3.5"/>
</symbol>

<symbol id="icon-plus" viewBox="0 0 24 24" fill="none" stroke="currentColor" stroke-width="1.8" stroke-linecap="round" stroke-linejoin="round">
  <line x1="12" y1="5" x2="12" y2="19"/><line x1="5" y1="12" x2="19" y2="12"/>
</symbol>

<symbol id="icon-minus" viewBox="0 0 24 24" fill="none" stroke="currentColor" stroke-width="1.8" stroke-linecap="round" stroke-linejoin="round">
  <line x1="5" y1="12" x2="19" y2="12"/>
</symbol>

<symbol id="icon-close" viewBox="0 0 24 24" fill="none" stroke="currentColor" stroke-width="1.8" stroke-linecap="round" stroke-linejoin="round">
  <line x1="6" y1="6" x2="18" y2="18"/><line x1="18" y1="6" x2="6" y2="18"/>
</symbol>

<symbol id="icon-check" viewBox="0 0 24 24" fill="none" stroke="currentColor" stroke-width="2" stroke-linecap="round" stroke-linejoin="round">
  <polyline points="5 13 9.5 17.5 19 6"/>
</symbol>

<symbol id="icon-check-circle" viewBox="0 0 24 24" fill="none" stroke="currentColor" stroke-width="1.8" stroke-linecap="round" stroke-linejoin="round">
  <circle cx="12" cy="12" r="9"/><polyline points="8 12.5 11 15.5 16 9"/>
</symbol>

<symbol id="icon-edit" viewBox="0 0 24 24" fill="none" stroke="currentColor" stroke-width="1.8" stroke-linecap="round" stroke-linejoin="round">
  <path d="M4 20l1-4.2L15.2 5.6a1.8 1.8 0 0 1 2.6 0l0.6.6a1.8 1.8 0 0 1 0 2.6L8.2 19 4 20z"/><line x1="13.8" y1="7" x2="17" y2="10.2"/>
</symbol>

<symbol id="icon-trash" viewBox="0 0 24 24" fill="none" stroke="currentColor" stroke-width="1.8" stroke-linecap="round" stroke-linejoin="round">
  <line x1="4.5" y1="7" x2="19.5" y2="7"/><path d="M9.5 3.5h5l1 3.5h-7z"/>
  <path d="M6.5 7l1 13h9l1-13"/><line x1="10" y1="10.5" x2="10" y2="17"/><line x1="14" y1="10.5" x2="14" y2="17"/>
</symbol>

<symbol id="icon-chevron-down" viewBox="0 0 24 24" fill="none" stroke="currentColor" stroke-width="1.8" stroke-linecap="round" stroke-linejoin="round">
  <polyline points="6 9 12 15 18 9"/>
</symbol>

<symbol id="icon-chevron-up" viewBox="0 0 24 24" fill="none" stroke="currentColor" stroke-width="1.8" stroke-linecap="round" stroke-linejoin="round">
  <polyline points="6 15 12 9 18 15"/>
</symbol>

<symbol id="icon-chevron-left" viewBox="0 0 24 24" fill="none" stroke="currentColor" stroke-width="1.8" stroke-linecap="round" stroke-linejoin="round">
  <polyline points="15 6 9 12 15 18"/>
</symbol>

<symbol id="icon-chevron-right" viewBox="0 0 24 24" fill="none" stroke="currentColor" stroke-width="1.8" stroke-linecap="round" stroke-linejoin="round">
  <polyline points="9 6 15 12 9 18"/>
</symbol>

<symbol id="icon-search" viewBox="0 0 24 24" fill="none" stroke="currentColor" stroke-width="1.8" stroke-linecap="round" stroke-linejoin="round">
  <circle cx="10.8" cy="10.8" r="6.3"/><line x1="21" y1="21" x2="15.6" y2="15.6"/>
</symbol>

<symbol id="icon-filter" viewBox="0 0 24 24" fill="none" stroke="currentColor" stroke-width="1.8" stroke-linecap="round" stroke-linejoin="round">
  <path d="M4 5h16l-6.2 7.2v6l-3.6 1.8v-7.8z"/>
</symbol>

<symbol id="icon-star" viewBox="0 0 24 24" fill="none" stroke="currentColor" stroke-width="1.6" stroke-linecap="round" stroke-linejoin="round">
  <polygon points="12 3.5 14.6 9 20.5 9.8 16.2 13.8 17.3 19.8 12 16.8 6.7 19.8 7.8 13.8 3.5 9.8 9.4 9"/>
</symbol>

<symbol id="icon-star-filled" viewBox="0 0 24 24" fill="currentColor" stroke="currentColor" stroke-width="1.2" stroke-linejoin="round">
  <polygon points="12 3.5 14.6 9 20.5 9.8 16.2 13.8 17.3 19.8 12 16.8 6.7 19.8 7.8 13.8 3.5 9.8 9.4 9"/>
</symbol>

<symbol id="icon-timer" viewBox="0 0 24 24" fill="none" stroke="currentColor" stroke-width="1.8" stroke-linecap="round" stroke-linejoin="round">
  <line x1="9.5" y1="2.5" x2="14.5" y2="2.5"/><line x1="12" y1="2.5" x2="12" y2="5.3"/>
  <circle cx="12" cy="13.5" r="8"/><polyline points="12 9.5 12 13.5 15 15.5"/>
</symbol>

<symbol id="icon-flame" viewBox="0 0 24 24" fill="none" stroke="currentColor" stroke-width="1.8" stroke-linecap="round" stroke-linejoin="round">
  <path d="M12 2.5c1 3 4 4.4 4 8.3a4 4 0 1 1-8 0c0-1.3.6-2 1.1-2.7.3 1.6 1.4 1.9 1.4 1.9-.6-2.6.6-5 1.5-7.5z"/>
</symbol>

<symbol id="icon-trophy" viewBox="0 0 24 24" fill="none" stroke="currentColor" stroke-width="1.8" stroke-linecap="round" stroke-linejoin="round">
  <path d="M7 3.5h10v6a5 5 0 0 1-10 0z"/><path d="M7 5H4v2a3 3 0 0 0 3 3"/><path d="M17 5h3v2a3 3 0 0 1-3 3"/>
  <line x1="12" y1="14.5" x2="12" y2="18"/><line x1="8.5" y1="20.5" x2="15.5" y2="20.5"/><line x1="9.5" y1="18" x2="14.5" y2="18"/>
</symbol>

<symbol id="icon-repeat" viewBox="0 0 24 24" fill="none" stroke="currentColor" stroke-width="1.8" stroke-linecap="round" stroke-linejoin="round">
  <path d="M4 12a8 8 0 0 1 14-5.2M20 4v5h-5"/><path d="M20 12a8 8 0 0 1-14 5.2M4 20v-5h5"/>
</symbol>

<symbol id="icon-save" viewBox="0 0 24 24" fill="none" stroke="currentColor" stroke-width="1.8" stroke-linecap="round" stroke-linejoin="round">
  <path d="M5 4h11l3 3v13H5z"/><rect x="8" y="4" width="6" height="5"/><rect x="7.5" y="13.5" width="9" height="6"/>
</symbol>

<symbol id="icon-info" viewBox="0 0 24 24" fill="none" stroke="currentColor" stroke-width="1.8" stroke-linecap="round" stroke-linejoin="round">
  <circle cx="12" cy="12" r="9"/><line x1="12" y1="11" x2="12" y2="16.3"/><circle cx="12" cy="7.6" r="0.9" fill="currentColor" stroke="none"/>
</symbol>

<symbol id="icon-warning" viewBox="0 0 24 24" fill="none" stroke="currentColor" stroke-width="1.8" stroke-linecap="round" stroke-linejoin="round">
  <path d="M12 3.5 21.5 20h-19z"/><line x1="12" y1="9.5" x2="12" y2="14.5"/><circle cx="12" cy="17.3" r="0.8" fill="currentColor" stroke="none"/>
</symbol>

<symbol id="icon-sun" viewBox="0 0 24 24" fill="none" stroke="currentColor" stroke-width="1.8" stroke-linecap="round" stroke-linejoin="round">
  <circle cx="12" cy="12" r="4"/>
  <path d="M12 2.5v2.4M12 19.1v2.4M21.5 12h-2.4M4.9 12H2.5M18.6 5.4l-1.7 1.7M7.1 16.9l-1.7 1.7M18.6 18.6l-1.7-1.7M7.1 7.1 5.4 5.4"/>
</symbol>

<symbol id="icon-moon" viewBox="0 0 24 24" fill="none" stroke="currentColor" stroke-width="1.8" stroke-linecap="round" stroke-linejoin="round">
  <path d="M20 13.7A8.5 8.5 0 1 1 10.3 4a6.7 6.7 0 0 0 9.7 9.7z"/>
</symbol>

<symbol id="icon-arrow-up" viewBox="0 0 24 24" fill="none" stroke="currentColor" stroke-width="2" stroke-linecap="round" stroke-linejoin="round">
  <line x1="12" y1="19" x2="12" y2="6"/><polyline points="6.5 11.5 12 6 17.5 11.5"/>
</symbol>

<symbol id="icon-arrow-down" viewBox="0 0 24 24" fill="none" stroke="currentColor" stroke-width="2" stroke-linecap="round" stroke-linejoin="round">
  <line x1="12" y1="5" x2="12" y2="18"/><polyline points="6.5 12.5 12 18 17.5 12.5"/>
</symbol>

<symbol id="icon-drag" viewBox="0 0 24 24" fill="currentColor" stroke="none">
  <circle cx="9" cy="6" r="1.3"/><circle cx="15" cy="6" r="1.3"/><circle cx="9" cy="12" r="1.3"/><circle cx="15" cy="12" r="1.3"/><circle cx="9" cy="18" r="1.3"/><circle cx="15" cy="18" r="1.3"/>
</symbol>

<symbol id="icon-play" viewBox="0 0 24 24" fill="currentColor" stroke="none">
  <path d="M7 4.5v15l13-7.5z"/>
</symbol>

<symbol id="icon-pause" viewBox="0 0 24 24" fill="currentColor" stroke="none">
  <rect x="6.5" y="4.5" width="4" height="15" rx="1"/><rect x="13.5" y="4.5" width="4" height="15" rx="1"/>
</symbol>

<symbol id="icon-bell" viewBox="0 0 24 24" fill="none" stroke="currentColor" stroke-width="1.8" stroke-linecap="round" stroke-linejoin="round">
  <path d="M12 3.5a5 5 0 0 0-5 5v3l-2 4h14l-2-4v-3a5 5 0 0 0-5-5z"/><path d="M9.8 19.5a2.3 2.3 0 0 0 4.4 0"/>
</symbol>

<symbol id="icon-video" viewBox="0 0 24 24" fill="none" stroke="currentColor" stroke-width="1.8" stroke-linecap="round" stroke-linejoin="round">
  <rect x="3" y="6.5" width="13" height="11" rx="1.5"/><path d="M16 10.5l5-3v9l-5-3z"/>
</symbol>

<symbol id="icon-image" viewBox="0 0 24 24" fill="none" stroke="currentColor" stroke-width="1.8" stroke-linecap="round" stroke-linejoin="round">
  <rect x="3" y="4.5" width="18" height="15" rx="1.5"/><circle cx="8.3" cy="9.5" r="1.6"/><path d="M4 18l5.5-5.5 3.8 3.8 2.2-2.2L20.5 18.6"/>
</symbol>

<symbol id="icon-barbell" viewBox="0 0 24 24" fill="none" stroke="currentColor" stroke-width="1.8" stroke-linecap="round" stroke-linejoin="round">
  <line x1="4.5" y1="12" x2="19.5" y2="12"/>
  <rect x="1.5" y="9" width="2.2" height="6" rx="0.5"/><rect x="20.3" y="9" width="2.2" height="6" rx="0.5"/>
  <rect x="4.4" y="7.5" width="1.8" height="9" rx="0.4"/><rect x="17.8" y="7.5" width="1.8" height="9" rx="0.4"/>
</symbol>

<symbol id="icon-ezbar" viewBox="0 0 24 24" fill="none" stroke="currentColor" stroke-width="1.8" stroke-linecap="round" stroke-linejoin="round">
  <path d="M4.5 12h2.2l1.6-2.4 1.6 2.4 1.6-2.4 1.6 2.4 1.6-2.4 1.6 2.4h2.2"/>
  <rect x="1.5" y="9.5" width="2" height="5" rx="0.4"/><rect x="20.5" y="9.5" width="2" height="5" rx="0.4"/>
</symbol>

<symbol id="icon-dumbbell" viewBox="0 0 24 24" fill="none" stroke="currentColor" stroke-width="1.8" stroke-linecap="round" stroke-linejoin="round">
  <line x1="8.5" y1="12" x2="15.5" y2="12"/>
  <rect x="3" y="9" width="3.2" height="6" rx="0.8"/><rect x="17.8" y="9" width="3.2" height="6" rx="0.8"/>
  <rect x="6.4" y="10.2" width="1.6" height="3.6" rx="0.3"/><rect x="16" y="10.2" width="1.6" height="3.6" rx="0.3"/>
</symbol>

<symbol id="icon-cable" viewBox="0 0 24 24" fill="none" stroke="currentColor" stroke-width="1.8" stroke-linecap="round" stroke-linejoin="round">
  <circle cx="12" cy="5" r="2.2"/><line x1="12" y1="7.2" x2="12" y2="17"/><path d="M7 17h10l-1.5 3h-7z"/>
</symbol>

<symbol id="icon-machine" viewBox="0 0 24 24" fill="none" stroke="currentColor" stroke-width="1.8" stroke-linecap="round" stroke-linejoin="round">
  <rect x="3.5" y="4" width="10" height="16" rx="1.2"/>
  <line x1="15" y1="6" x2="19.5" y2="6"/><line x1="15" y1="9" x2="19.5" y2="9"/><line x1="15" y1="12" x2="19.5" y2="12"/><line x1="15" y1="15" x2="19.5" y2="15"/>
</symbol>

<symbol id="icon-smith" viewBox="0 0 24 24" fill="none" stroke="currentColor" stroke-width="1.8" stroke-linecap="round" stroke-linejoin="round">
  <line x1="6" y1="2.5" x2="6" y2="21.5"/><line x1="18" y1="2.5" x2="18" y2="21.5"/>
  <line x1="6" y1="12" x2="18" y2="12"/><rect x="3.4" y="10" width="1.8" height="4" rx="0.3"/><rect x="18.8" y="10" width="1.8" height="4" rx="0.3"/>
</symbol>

<symbol id="icon-bench" viewBox="0 0 24 24" fill="none" stroke="currentColor" stroke-width="1.8" stroke-linecap="round" stroke-linejoin="round">
  <rect x="3.5" y="9.5" width="17" height="3.4" rx="0.8"/><line x1="6" y1="13" x2="6" y2="20.5"/><line x1="18" y1="13" x2="18" y2="20.5"/>
</symbol>

<symbol id="icon-kettlebell" viewBox="0 0 24 24" fill="none" stroke="currentColor" stroke-width="1.8" stroke-linecap="round" stroke-linejoin="round">
  <path d="M8.5 9a3.5 3.5 0 0 1 7 0"/><circle cx="12" cy="15" r="6.3"/>
</symbol>

<symbol id="icon-trx" viewBox="0 0 24 24" fill="none" stroke="currentColor" stroke-width="1.8" stroke-linecap="round" stroke-linejoin="round">
  <line x1="6" y1="2.5" x2="18" y2="2.5"/><line x1="9" y1="2.5" x2="9" y2="16"/><line x1="15" y1="2.5" x2="15" y2="16"/>
  <rect x="7.6" y="16" width="2.8" height="5" rx="0.6"/><rect x="13.6" y="16" width="2.8" height="5" rx="0.6"/>
</symbol>

<symbol id="icon-band" viewBox="0 0 24 24" fill="none" stroke="currentColor" stroke-width="1.8" stroke-linecap="round" stroke-linejoin="round">
  <path d="M2.5 12c1.6-4.5 3.4-4.5 5-2 1.6 2.5 3.4 2.5 5 0 1.6-2.5 3.4-2.5 5 0 1.2 1.9 2.4 2.3 3.5 1.5"/>
</symbol>

<symbol id="icon-bodyweight" viewBox="0 0 24 24" fill="none" stroke="currentColor" stroke-width="1.8" stroke-linecap="round" stroke-linejoin="round">
  <circle cx="12" cy="5.3" r="2.3"/><line x1="12" y1="8" x2="12" y2="14.5"/><line x1="7.5" y1="11" x2="16.5" y2="11"/><line x1="12" y1="14.5" x2="8.3" y2="20.5"/><line x1="12" y1="14.5" x2="15.7" y2="20.5"/>
</symbol>

<symbol id="icon-rope" viewBox="0 0 24 24" fill="none" stroke="currentColor" stroke-width="1.6" stroke-linecap="round" stroke-linejoin="round">
  <path d="M9 3c-3 3 3 4.5 0 7.5s3 4.5 0 7.5"/><path d="M15 3c-3 3 3 4.5 0 7.5s3 4.5 0 7.5"/>
</symbol>

<symbol id="icon-plate" viewBox="0 0 24 24" fill="none" stroke="currentColor" stroke-width="1.8" stroke-linecap="round" stroke-linejoin="round">
  <circle cx="12" cy="12" r="8.5"/><circle cx="12" cy="12" r="2.6"/>
</symbol>

<symbol id="icon-landmine" viewBox="0 0 24 24" fill="none" stroke="currentColor" stroke-width="1.8" stroke-linecap="round" stroke-linejoin="round">
  <line x1="4" y1="20" x2="17" y2="7"/><circle cx="18.5" cy="5.5" r="3"/><line x1="4" y1="20" x2="8" y2="20"/>
</symbol>

</defs>
</svg>
